# xmcd CD database file
# 
# Track frame offsets:
# 	150
# 	16271
# 	51786
# 	64731
# 	86670
# 	116905
# 	138139
# 	162933
# 	186975
# 	206885
# 	230331
# 
# Disc length: 3382 seconds
# 
# Submitted via: Nero 5.5.8.2
# 
# Revision: 0
# Processed by: cddbd v1.4PL0 Copyright (c) Steve Scherf et al.
#
DISCID=970d340b
DTITLE=Bobby Messano - The Best Of Bobby Messano
DYEAR=1900
DGENRE=
TTITLE0=Get Up And Dance With The Blues
TTITLE1=Dominion Roads
TTITLE2=I Will Try
TTITLE3=Sea Of Hope
TTITLE4=Holdin' Ground (Live)
TTITLE5=Hard World
TTITLE6=In The Depths Of Love
TTITLE7=Guess Life Always Works That Way
TTITLE8=Hot N Lazy
TTITLE9=The Face Behind The Axe
TTITLE10=Data Track
EXTD=MP3.com
EXTT0=MP3.com
EXTT1=MP3.com
EXTT2=MP3.com
EXTT3=MP3.com
EXTT4=MP3.com
EXTT5=MP3.com
EXTT6=MP3.com
EXTT7=MP3.com
EXTT8=MP3.com
EXTT9=MP3.com
EXTT10=MP3.com
PLAYORDER=
